PathFileType	4	(X/Y/Z)	./resultDataOpenSim/trcMotMarkerGrf/sub10/qtm-14-05.trc
DataRate	CameraRate	NumFrames	NumMarkers	Units	OrigDataRate	OrigDataStartFrame	OrigNumFrames
250.000000	250.000000	5	24	m	250.000000	244	486
Frame#	Time	L.Toe.Tip			R.Toe.Tip			L.Ankle.Lat			R.Ankle.Lat			L.Ankle.Med			R.Ankle.Med			L.Heel			R.Heel			L.Knee.Lat			R.Knee.Lat			L.Knee.Med			R.Knee.Med			L.Thigh.Upper			R.Thigh.Upper			L.ASIS			R.ASIS			V.Sacral			L.Acromium			R.Acromium			C7			L.Elbow			R.Elbow			L.Wrist.Lat			R.Wrist.Lat
		X1	Y1	Z1	X2	Y2	Z2	X3	Y3	Z3	X4	Y4	Z4	X5	Y5	Z5	X6	Y6	Z6	X7	Y7	Z7	X8	Y8	Z8	X9	Y9	Z9	X10	Y10	Z10	X11	Y11	Z11	X12	Y12	Z12	X13	Y13	Z13	X14	Y14	Z14	X15	Y15	Z15	X16	Y16	Z16	X17	Y17	Z17	X18	Y18	Z18	X19	Y19	Z19	X20	Y20	Z20	X21	Y21	Z21	X22	Y22	Z22	X23	Y23	Z23	X24	Y24	Z24

244	0.972	-0.072888819	-0.033516336	-0.07961733	0.49604209	0.097162594	0.08171779	-0.19038503	0.015938343	-0.11997426	0.35290465	0.10060025	0.095359916	-0.17857285	0.039609266	-0.036197094	0.3844516	0.1282494	0.01462866	-0.26738367	0.011428796	-0.08303429	0.31473721	0.068576196	0.041485422	0.048032529	0.31195435	-0.14618979	0.34902608	0.49302752	0.10551375	0.053893551	0.29750349	-0.027154781	0.36404467	0.50753168	-0.021421585	0.033636921	0.70422356	-0.22858352	0.043476241	0.74353385	0.15520098	0.093683482	0.80876543	-0.16998362	0.10366153	0.82885741	0.075422536	-0.10317982	0.83851791	-0.038429913	0.12566073	1.2841563	-0.21319368	0.068426476	1.3012596	0.093757018	0.021093475	1.3258287	-0.077007567	-0.044004612	0.99721955	-0.29815844	-0.11604477	1.0445194	0.23390835	0.026443046	0.76526546	-0.3499095	-0.11471263	0.9648948	0.46855563
245	0.976	-0.073042124	-0.033495346	-0.079525633	0.51435978	0.097030648	0.078882134	-0.19036047	0.016170946	-0.11992974	0.37117712	0.099336408	0.094625202	-0.17843531	0.039821372	-0.03610732	0.40140375	0.1280502	0.013798846	-0.26736097	0.011855532	-0.083040936	0.33267711	0.06753971	0.040934321	0.04868097	0.3116974	-0.14612555	0.35566449	0.49197965	0.10545182	0.054292419	0.29721476	-0.027248563	0.37033777	0.50622403	-0.021337716	0.038550559	0.70441656	-0.22845541	0.050876284	0.74415439	0.15575001	0.099151897	0.80922881	-0.17066392	0.11099859	0.82917929	0.075657046	-0.096483074	0.83907029	-0.037038732	0.13246905	1.2847496	-0.21280938	0.075185829	1.3016652	0.093965404	0.02789451	1.3263261	-0.076625884	-0.038048466	0.99821709	-0.29785454	-0.11199346	1.0463106	0.23347957	0.031549143	0.76599874	-0.34964151	-0.11395233	0.96867763	0.46868543
246	0.98	-0.073190871	-0.033487831	-0.079435718	0.53225322	0.096937016	0.075895673	-0.19031528	0.016434585	-0.11987877	0.3890696	0.098319212	0.093834595	-0.17831666	0.040036497	-0.036025717	0.41795853	0.12802131	0.012932777	-0.26731991	0.012311596	-0.083028407	0.35015558	0.066793083	0.04036443	0.049340238	0.31153132	-0.14614864	0.3622694	0.49080533	0.10540679	0.054498041	0.29704893	-0.027287242	0.37672296	0.5047617	-0.021262697	0.043533081	0.70461552	-0.22833432	0.05833276	0.74486334	0.15624298	0.10468434	0.80980934	-0.1713569	0.11842438	0.82969287	0.075797637	-0.089726322	0.83970268	-0.035763482	0.13927779	1.2854351	-0.21240645	0.081947947	1.302161	0.094201833	0.034691124	1.3268857	-0.076232543	-0.032098138	0.99933699	-0.29750428	-0.10772383	1.0480199	0.23298602	0.03665876	0.76680749	-0.34934011	-0.11301752	0.97239085	0.46865348
247	0.984	-0.073296887	-0.033497161	-0.079387342	0.5497111	0.096875898	0.072785216	-0.19023889	0.016747939	-0.11983711	0.40657913	0.097540937	0.092990378	-0.17821262	0.040264368	-0.03596051	0.43408577	0.12815395	0.012029774	-0.2672607	0.012807895	-0.083017665	0.367155	0.066301651	0.039798904	0.049945335	0.31147636	-0.14619952	0.36885143	0.48952742	0.10538222	0.054536493	0.29700424	-0.027286518	0.38316304	0.5031881	-0.0211915	0.048601597	0.70482823	-0.22821089	0.065837672	0.74565402	0.15667698	0.11028067	0.81048475	-0.17206449	0.12594616	0.83040439	0.075839973	-0.082915679	0.84040446	-0.034626697	0.14606195	1.2862082	-0.21198903	0.088713857	1.3027459	0.094468905	0.041492295	1.327505	-0.07581236	-0.026132544	1.0005678	-0.29709727	-0.10330077	1.0496894	0.23245225	0.041779356	0.76769319	-0.34899804	-0.11189955	0.97601712	0.46847004
248	0.988	-0.073311879	-0.033538831	-0.079395612	0.56671459	0.096845379	0.069569603	-0.1901506	0.017131618	-0.11979081	0.42368435	0.096977089	0.092114291	-0.17810541	0.040525082	-0.035916172	0.44973455	0.12843198	0.011097524	-0.26717402	0.013362732	-0.08302507	0.38366317	0.066038028	0.039236805	0.050434889	0.31154885	-0.14622752	0.37541122	0.48817231	0.10538386	0.054436415	0.29707968	-0.027255772	0.38962587	0.50154601	-0.021121044	0.05378773	0.70507771	-0.22808262	0.073391495	0.74652432	0.15705558	0.11595194	0.81122923	-0.17276697	0.13356499	0.8313093	0.075788803	-0.076020699	0.8411647	-0.033583476	0.15281836	1.2870717	-0.21155441	0.095476068	1.3034231	0.094771807	0.048312248	1.3281901	-0.075341029	-0.020131086	1.0019011	-0.29662603	-0.098834581	1.0514063	0.23186628	0.046926417	0.76866076	-0.34861047	-0.11060889	0.97954088	0.46814541
